# xmcd
#
# Track frame offsets:
#	150
#	2357
#	16482
#	30255
#	45414
#	61898
#	76315
#	92390
#	105586
#	121127
#	131776
#	145886
#	157377
#	171964
#	180905
#	196216
#	213073
#	225442
#	240134
#
# Disc length: 3449 seconds
#
# Revision: 445977376
# Processed by: cddbd v1.5.2PL0 Copyright (c) Steve Scherf et al.
# Submitted via: EZCDAudioConverter 8.5.0.1
#
DISCID=d90d7713
DTITLE=V/A - Jambú E Os Míticos Sons Da Amazônia
DYEAR=2019
DGENRE=
TTITLE0=Pinduca - Rosvaldo Já Chegou? (Introdução) 
TTITLE1=Pinduca - Vamos Farrear
TTITLE2=Os Muiraquitãns - A Misturada
TTITLE3=Os Quentes De Terra Alta - Praia Do Algodoal
TTITLE4=Pinduca - Pai Xangô
TTITLE5=Janjão - Meu Barquinho
TTITLE6=Messias Holanda - O Galo Canta, O Macaco Assovia
TTITLE7=Vieira E Seu Conjunto - Lambada Da Baleia
TTITLE8=Verequete E O Conjunto Uirapurú - Mambo Assanhado
TTITLE9=Orlando Pereira - Carimbó Para Yemanjá
TTITLE10=Pinduca - Coco Da Bahia
TTITLE11=Messias Holanda - Carimbó Da Pimenta
TTITLE12=Verequete E O Conjunto Uirapurú - Da Garrafa Uma Pinga
TTITLE13=Orlando Pereira - Marudá
TTITLE14=Magalhães E Sua Guitarra - Xangô
TTITLE15=Vieira E Seu Conjunto - Melô Do Bode
TTITLE16=Grupo Da Pesada - Voa Andorinha
TTITLE17=Grupo Da Pesada - Lundun Da Yaya
TTITLE18=Mestre Cupijó E Seu Ritmo - Despedida
EXTD=
EXTT0=
EXTT1=
EXTT2=
EXTT3=
EXTT4=
EXTT5=
EXTT6=
EXTT7=
EXTT8=
EXTT9=
EXTT10=
EXTT11=
EXTT12=
EXTT13=
EXTT14=
EXTT15=
EXTT16=
EXTT17=
EXTT18=
PLAYORDER=
